<svg xmlns="http://www.w3.org/2000/svg" xmlns:xlink="http://www.w3.org/1999/xlink" width="59.907" height="58.418" viewBox="0 0 59.907 58.418">
  <defs>
    <clipPath id="clip-path">
      <rect id="Rectangle_868" data-name="Rectangle 868" width="59.907" height="58.418" fill="none"/>
    </clipPath>
  </defs>
  <g id="icon6" opacity="0.8">
    <g id="Group_1149" data-name="Group 1149" clip-path="url(#clip-path)">
      <path id="Path_872" data-name="Path 872" d="M28.308,0H3.04A2.99,2.99,0,0,0,0,2.928V55.492a2.987,2.987,0,0,0,3.04,2.927H28.308a2.988,2.988,0,0,0,3.04-2.927V2.927A2.989,2.989,0,0,0,28.308,0M11.264,4.548h8.821v.621H11.264ZM2.079,8.689H29.273V48.994H2.079Zm13.6,46.666a1.7,1.7,0,1,1,1.7-1.7,1.7,1.7,0,0,1-1.7,1.7" fill="#fff"/>
      <path id="Path_873" data-name="Path 873" d="M103.64,143.635a4.276,4.276,0,1,1,6.839-2.979l-2.191-1.686s-2.624-1.308-3.707.108.462,3.464.462,3.464l2.351,1.8a4.253,4.253,0,0,1-3.754-.7m27.314-5.846a5.314,5.314,0,0,0-3.529-.735,2.654,2.654,0,0,0-1.777,1.2l3.134,2.395-.573.75-3.433-2.623a3.664,3.664,0,0,0-2.576.22,4.271,4.271,0,0,0-1.565,1.781l3.538,2.7-.57.746-3.971-3.034a3.192,3.192,0,0,0-2.339,1.2,3.015,3.015,0,0,0-.647,1.725l3.342,2.67-.574.752-6.152-4.739a7.49,7.49,0,1,0-2.987,3.744l10.473,8s-5.624-1.243-7.425-.022a3.36,3.36,0,0,0-1.59,2.987,74.819,74.819,0,0,1,9.723,2.328c3.125,1,6.173,2.914,8.174,3.22,5.1.789,9.457-.408,11.769-3.434s3.668-7.941,1.989-10.952-12.434-10.884-12.434-10.884" transform="translate(-86.047 -115.681)" fill="#fff"/>
      <path id="Path_874" data-name="Path 874" d="M110.337,140.64l2.783,2.143a7.493,7.493,0,1,0-14.164-.243,8.068,8.068,0,0,0,2.949,3.91,7.18,7.18,0,0,0,5.222,1.195,7.949,7.949,0,0,0,3.007-1.117l-2.881-2.2a4.138,4.138,0,0,1-4.964-2.151c-1.788-3.266,1.353-5.543,1.868-5.762a4.008,4.008,0,0,1,4.533.415,4.444,4.444,0,0,1,1.647,3.815" transform="translate(-85.905 -115.665)" fill="#fff"/>
      <path id="Path_875" data-name="Path 875" d="M398.41,278.281s.478,10.844-8.839,12.27a4.3,4.3,0,0,0,2.628.869c1.274-.159,5.335-1.354,6.928-7.007,0,0,1.035-3.743-.717-6.131" transform="translate(-339.523 -242.531)" fill="#fff"/>
    </g>
  </g>
</svg>
