<svg xmlns="http://www.w3.org/2000/svg" xmlns:xlink="http://www.w3.org/1999/xlink" width="65.148" height="61.396" viewBox="0 0 65.148 61.396">
  <defs>
    <clipPath id="clip-path">
      <rect id="Rectangle_866" data-name="Rectangle 866" width="65.148" height="61.396" fill="none"/>
    </clipPath>
  </defs>
  <g id="icon2" opacity="0.8">
    <path id="Path_859" data-name="Path 859" d="M319.26,119.787v7.178h12.186l-2.033-7.178Z" transform="translate(-278.51 -104.498)" fill="#fff"/>
    <path id="Path_860" data-name="Path 860" d="M319.706,201.348h14.219l-2.033-7.174H319.706Z" transform="translate(-278.899 -169.39)" fill="#fff"/>
    <g id="Group_1145" data-name="Group 1145">
      <g id="Group_1144" data-name="Group 1144" clip-path="url(#clip-path)">
        <path id="Path_861" data-name="Path 861" d="M2.794,117.468,8.894,86.7H52.232l7.723,30.768ZM52.7,84.45H8.426a2.151,2.151,0,0,0-2.337,1.876L0,117.843a2.14,2.14,0,0,0,2.328,1.874H60.421a2.141,2.141,0,0,0,2.328-1.874L55.026,86.326A2.141,2.141,0,0,0,52.7,84.45" transform="translate(0 -73.671)" fill="#fff"/>
        <path id="Path_862" data-name="Path 862" d="M83.02,119.787H72.058l-2.031,7.178H83.02Z" transform="translate(-61.089 -104.498)" fill="#fff"/>
        <rect id="Rectangle_863" data-name="Rectangle 863" width="12.994" height="7.167" transform="translate(24.905 15.289)" fill="#fff"/>
        <path id="Path_863" data-name="Path 863" d="M54.555,201.348H69.578v-7.174H56.589Z" transform="translate(-47.592 -169.39)" fill="#fff"/>
        <rect id="Rectangle_864" data-name="Rectangle 864" width="13.004" height="7.179" transform="translate(24.952 24.784)" fill="#fff"/>
        <path id="Path_864" data-name="Path 864" d="M41.82,276.368H58.469V269.2H43.853Z" transform="translate(-36.482 -234.836)" fill="#fff"/>
        <rect id="Rectangle_865" data-name="Rectangle 865" width="13.004" height="7.178" transform="translate(24.952 34.36)" fill="#fff"/>
        <path id="Path_865" data-name="Path 865" d="M319.706,269.2v7.172h16.252l-2.033-7.172Z" transform="translate(-278.899 -234.837)" fill="#fff"/>
        <path id="Path_866" data-name="Path 866" d="M187.892,373.792h-5.135v10.216h-6.042v3.469H194.08v-3.469h-6.188Z" transform="translate(-154.159 -326.082)" fill="#fff"/>
        <path id="Path_867" data-name="Path 867" d="M351.735,29.916a2.141,2.141,0,0,1,2.328,1.884l2.169,8.86A9.585,9.585,0,1,0,341.15,29.928h10.585Z" transform="translate(-297.606 -20.658)" fill="#fff"/>
        <path id="Path_868" data-name="Path 868" d="M471.951,5.113a.257.257,0,0,0,.193.058.192.192,0,0,0,.159-.1L475.029.333a.232.232,0,0,0-.306-.308L470,2.752a.2.2,0,0,0-.113.156.226.226,0,0,0,.057.2Z" transform="translate(-409.906 0)" fill="#fff"/>
        <path id="Path_869" data-name="Path 869" d="M465.343,157.51a.293.293,0,0,0-.17-.113.186.186,0,0,0-.182.069l-1.852,1.841.17.68,4.452,2.567c.17.091.409-.136.306-.308Z" transform="translate(-404.026 -137.304)" fill="#fff"/>
        <path id="Path_870" data-name="Path 870" d="M309.455,7.773a.258.258,0,0,0,.182-.067l2.01-2.009a.262.262,0,0,0,.068-.183.165.165,0,0,0-.1-.149L307.24,2.993c-.159-.091-.4.136-.306.305l2.374,4.373a.19.19,0,0,0,.148.1" transform="translate(-267.739 -2.593)" fill="#fff"/>
      </g>
    </g>
  </g>
</svg>
