<svg xmlns="http://www.w3.org/2000/svg" xmlns:xlink="http://www.w3.org/1999/xlink" width="43.494" height="61.396" viewBox="0 0 43.494 61.396">
  <defs>
    <clipPath id="clip-path">
      <rect id="Rectangle_69" data-name="Rectangle 69" width="43.494" height="61.396" fill="none"/>
    </clipPath>
  </defs>
  <g id="icon5" opacity="0.8">
    <g id="Group_1127" data-name="Group 1127" clip-path="url(#clip-path)">
      <path id="Path_848" data-name="Path 848" d="M44.2,137.785A12.546,12.546,0,1,1,56.743,150.33,12.56,12.56,0,0,1,44.2,137.785m12.546,15.85a15.85,15.85,0,1,0-15.85-15.85,15.868,15.868,0,0,0,15.85,15.85" transform="translate(-35.222 -105.024)" fill="#fff"/>
      <path id="Path_849" data-name="Path 849" d="M75.111,207.725a3.6,3.6,0,0,0-1.957-3.337,10.278,10.278,0,0,0-.64,6.868,3.433,3.433,0,0,0,2.6-3.531" transform="translate(-62.184 -176.041)" fill="#fff"/>
      <path id="Path_850" data-name="Path 850" d="M81.155,246.948a.583.583,0,1,1-.562.583.573.573,0,0,1,.562-.583m1.357.778a.467.467,0,1,1-.45.466.458.458,0,0,1,.45-.466m1.757,1.166a.583.583,0,1,1-.562.583.573.573,0,0,1,.562-.583m1.495-1.632a.583.583,0,1,1-.562.583.573.573,0,0,1,.562-.583m1.974-1.4a.583.583,0,1,1-.562.583.573.573,0,0,1,.562-.583m.8,4.2a.583.583,0,1,1-.562.583.573.573,0,0,1,.562-.583m2.392-5.362a.817.817,0,1,1-.787.816.8.8,0,0,1,.787-.816m1.176,3.381a.562.562,0,1,1-.562-.583.573.573,0,0,1,.562.583m-5.05,4.393c5.005,0,9.719-3.966,11.143-8.627-1.962-1.123-6.634-3.261-9.784-2.086-4.245,1.584-5.8,3.412-10.022,2.759-.862-.133-1.859-.212-2.344-.253,1.545,4.444,6.152,8.208,11.006,8.208" transform="translate(-65.497 -207.931)" fill="#fff"/>
      <path id="Path_851" data-name="Path 851" d="M26.861,60.578V57.911a.946.946,0,0,0-.944-.944H18.255a.946.946,0,0,0-.945.944v2.667a.946.946,0,0,0,.945.944h7.662a.946.946,0,0,0,.944-.944" transform="translate(-14.909 -49.066)" fill="#fff"/>
      <path id="Path_852" data-name="Path 852" d="M38.512,73.6a16.1,16.1,0,0,1-8.866,8.866A17.6,17.6,0,0,1,6.477,59.3a16.1,16.1,0,0,1,8.866-8.866A17.6,17.6,0,0,1,38.512,73.6M29.857,43.719a.478.478,0,1,1,.955,0v.776a.478.478,0,1,1-.955,0Zm0-2.656a.478.478,0,0,1,.955,0v.776a.478.478,0,0,1-.955,0Zm1.5,2.656a.478.478,0,1,1,.955,0v.776a.478.478,0,1,1-.955,0Zm0-2.656a.478.478,0,0,1,.955,0v.776a.478.478,0,0,1-.955,0Zm1.5,2.656a.478.478,0,1,1,.955,0v.776a.478.478,0,1,1-.955,0Zm0-2.656a.478.478,0,0,1,.955,0v.776a.478.478,0,0,1-.955,0Zm1.5,2.656a.478.478,0,1,1,.955,0v.776a.478.478,0,1,1-.955,0Zm0-2.656a.478.478,0,0,1,.955,0v.776a.478.478,0,0,1-.955,0Zm1.5,2.656a.478.478,0,1,1,.955,0v.776a.478.478,0,1,1-.955,0Zm0-2.656a.478.478,0,0,1,.955,0v.776a.478.478,0,0,1-.955,0Zm4.518-.7a2.656,2.656,0,1,1-2.656,2.656,2.659,2.659,0,0,1,2.656-2.656M1.958,45.3V42.435a1.852,1.852,0,0,1,1.85-1.85h8.231a1.852,1.852,0,0,1,1.85,1.85V45.3a1.852,1.852,0,0,1-1.85,1.851H3.808A1.852,1.852,0,0,1,1.958,45.3M.868,39.114V92.627a2.458,2.458,0,0,0,2.457,2.458H41.664a2.458,2.458,0,0,0,2.458-2.458V39.114H.868Z" transform="translate(-0.748 -33.689)" fill="#fff"/>
      <path id="Path_853" data-name="Path 853" d="M275.3,58.549a1.671,1.671,0,1,0-1.671-1.671,1.673,1.673,0,0,0,1.671,1.671" transform="translate(-235.676 -47.549)" fill="#fff"/>
      <path id="Path_854" data-name="Path 854" d="M41.242,0H2.251A2.221,2.221,0,0,0,0,2.19V3.939H43.494V2.19A2.221,2.221,0,0,0,41.242,0" fill="#fff"/>
    </g>
  </g>
</svg>
