<svg xmlns="http://www.w3.org/2000/svg" xmlns:xlink="http://www.w3.org/1999/xlink" width="59.778" height="59.918" viewBox="0 0 59.778 59.918">
  <defs>
    <clipPath id="clip-path">
      <rect id="Rectangle_867" data-name="Rectangle 867" width="59.778" height="59.919" fill="none"/>
    </clipPath>
  </defs>
  <g id="icon7" opacity="0.8">
    <g id="Group_1147" data-name="Group 1147" clip-path="url(#clip-path)">
      <path id="Path_871" data-name="Path 871" d="M.574.575c-1.94,1.94,1.5,8.525,3.44,10.466l7.77,7.768V54.154a1.75,1.75,0,0,0,3.377.643L24.4,31.425,38.73,45.757V59.312a.607.607,0,0,0,1.171.222l4.507-11.407a4.89,4.89,0,0,0,.842-.276l.5.5a1.82,1.82,0,1,0,2.573-2.574l-.487-.486a5.069,5.069,0,0,0,.288-.851l11.268-4.4a.608.608,0,0,0,.376-.677.607.607,0,0,0-.6-.494H45.9l-14.56-14.56,23.45-9.151a1.75,1.75,0,0,0-.637-3.38H18.811L11.041,4.012C9.1,2.072,2.514-1.366.574.575" transform="translate(0 0)" fill="#fff"/>
    </g>
  </g>
</svg>
