<svg id="icons5" xmlns="http://www.w3.org/2000/svg" xmlns:xlink="http://www.w3.org/1999/xlink" width="85.63" height="85.832" viewBox="0 0 85.63 85.832">
  <defs>
    <clipPath id="clip-path">
      <rect id="Rectangle_867" data-name="Rectangle 867" width="85.631" height="85.832" fill="#637276"/>
    </clipPath>
  </defs>
  <g id="Group_1147" data-name="Group 1147" clip-path="url(#clip-path)">
    <path id="Path_871" data-name="Path 871" d="M.823.823C-1.957,3.6,2.97,13.035,5.75,15.816L16.881,26.944V77.575a2.506,2.506,0,0,0,4.838.921l13.231-33.48,20.53,20.53V84.964a.869.869,0,0,0,1.678.318l6.457-16.34a7.005,7.005,0,0,0,1.206-.395l.716.715a2.607,2.607,0,1,0,3.686-3.687l-.7-.7a7.262,7.262,0,0,0,.412-1.219l16.141-6.3a.87.87,0,0,0,.538-.97.87.87,0,0,0-.855-.707H65.752L44.895,34.828,78.487,21.72a2.506,2.506,0,0,0-.912-4.842H26.947L15.815,5.748C13.036,2.968,3.6-1.957.823.823" transform="translate(0 0)" fill="#637276"/>
  </g>
</svg>
