<svg xmlns="http://www.w3.org/2000/svg" xmlns:xlink="http://www.w3.org/1999/xlink" width="57.988" height="61.396" viewBox="0 0 57.988 61.396">
  <defs>
    <clipPath id="clip-path">
      <rect id="Rectangle_862" data-name="Rectangle 862" width="57.988" height="61.396" fill="none"/>
    </clipPath>
  </defs>
  <g id="icon3" opacity="0.8">
    <g id="Group_1142" data-name="Group 1142" clip-path="url(#clip-path)">
      <path id="Path_858" data-name="Path 858" d="M7.165,18.012V6.545A1.429,1.429,0,0,1,8.594,5.116H47.586l7.959,7.166-7.959,7.159H8.594a1.429,1.429,0,0,1-1.429-1.429m44,9V38.477a1.429,1.429,0,0,1-1.429,1.429H10.4L2.443,32.741l7.959-7.16H49.734a1.429,1.429,0,0,1,1.429,1.429M48.375,21.49l9.2-8.284a1.243,1.243,0,0,0,0-1.849l-9.2-8.284H28.649V1.024a1.021,1.021,0,1,0-2.043,0V3.072H8.594A3.48,3.48,0,0,0,5.116,6.545V18.012A3.481,3.481,0,0,0,8.594,21.49H26.606v2.043H9.619l-9.21,8.29A1.247,1.247,0,0,0,0,32.746a1.263,1.263,0,0,0,.409.924l9.21,8.284H26.606V60.371a1.021,1.021,0,1,0,2.043,0V41.955H49.734a3.48,3.48,0,0,0,3.477-3.477V27.01a3.481,3.481,0,0,0-3.477-3.478H28.649V21.49Z" fill="#fff"/>
    </g>
  </g>
</svg>
