<svg id="icons3" xmlns="http://www.w3.org/2000/svg" width="86.004" height="85.832" viewBox="0 0 86.004 85.832">
  <path id="Path_855" data-name="Path 855" d="M128.693,46.336h9.131V57.6h-9.131Zm14.676,0H152.5V57.6h-9.131ZM128.693,28.226h9.131V39.5h-9.131Zm14.676,0H152.5V39.5h-9.131ZM128.693,10.115h9.131v11.27h-9.131Zm14.676,0H152.5v11.27h-9.131ZM120.839,0V85.832h15.192V66.66h9.131V85.832h15.192V0Z" transform="translate(-97.594)" fill="#637276"/>
  <path id="Path_856" data-name="Path 856" d="M348.936,82.158h8.313V92.417h-8.313Zm0-16.489h8.313V75.928h-8.313Zm0-16.488h8.313V59.441h-8.313ZM344.7,39.972v60.69h5.866v17.453H364.4V39.972Z" transform="translate(-278.396 -32.283)" fill="#637276"/>
  <path id="Path_857" data-name="Path 857" d="M7.151,82.157h8.313V92.416H7.151Zm0-16.488h8.313V75.928H7.151Zm0-16.488h8.313V59.441H7.151ZM0,39.972v78.143H13.831V100.661H19.7V39.972Z" transform="translate(0 -32.283)" fill="#637276"/>
</svg>
