<svg xmlns="http://www.w3.org/2000/svg" width="61.519" height="61.396" viewBox="0 0 61.519 61.396">
  <g id="icon4" opacity="0.8">
    <path id="Path_855" data-name="Path 855" d="M126.457,33.145h6.532V41.2h-6.532Zm10.5,0h6.532V41.2h-6.532Zm-10.5-12.955h6.532v8.061h-6.532Zm10.5,0h6.532v8.061h-6.532Zm-10.5-12.955h6.532V15.3h-6.532Zm10.5,0h6.532V15.3h-6.532ZM120.839,0V61.4h10.867V47.682h6.532V61.4H149.1V0Z" transform="translate(-104.212)" fill="#fff"/>
    <path id="Path_856" data-name="Path 856" d="M347.731,70.148h5.947v7.338h-5.947Zm0-11.794h5.947v7.338h-5.947Zm0-11.794h5.947V53.9h-5.947ZM344.7,39.972V83.383h4.2V95.868h9.893v-55.9Z" transform="translate(-297.273 -34.472)" fill="#fff"/>
    <path id="Path_857" data-name="Path 857" d="M5.115,70.147h5.947v7.338H5.115Zm0-11.794h5.947v7.338H5.115Zm0-11.794h5.947V53.9H5.115ZM0,39.972v55.9H9.893V83.383h4.2V39.972Z" transform="translate(0 -34.472)" fill="#fff"/>
  </g>
</svg>
