<svg id="icons4" xmlns="http://www.w3.org/2000/svg" xmlns:xlink="http://www.w3.org/1999/xlink" width="60.805" height="85.832" viewBox="0 0 60.805 85.832">
  <defs>
    <clipPath id="clip-path">
      <rect id="Rectangle_69" data-name="Rectangle 69" width="60.805" height="85.832" fill="#637276"/>
    </clipPath>
  </defs>
  <g id="Group_1127" data-name="Group 1127" clip-path="url(#clip-path)">
    <path id="Path_848" data-name="Path 848" d="M45.511,144.093a17.539,17.539,0,1,1,17.539,17.539,17.559,17.559,0,0,1-17.539-17.539m17.539,22.158a22.158,22.158,0,1,0-22.158-22.158,22.183,22.183,0,0,0,22.158,22.158" transform="translate(-32.964 -98.293)" fill="#637276"/>
    <path id="Path_849" data-name="Path 849" d="M76.271,209.053a5.029,5.029,0,0,0-2.735-4.665,14.368,14.368,0,0,0-.894,9.6,4.8,4.8,0,0,0,3.63-4.937" transform="translate(-58.199 -164.759)" fill="#637276"/>
    <path id="Path_850" data-name="Path 850" d="M83.189,249.151a.815.815,0,1,1-.786.815.8.8,0,0,1,.786-.815m1.9,1.088a.652.652,0,1,1-.629.652.641.641,0,0,1,.629-.652m2.457,1.63a.815.815,0,1,1-.786.815.8.8,0,0,1,.786-.815m2.089-2.282a.815.815,0,1,1-.786.815.8.8,0,0,1,.786-.815m2.759-1.956a.815.815,0,1,1-.785.815.8.8,0,0,1,.785-.815M93.5,253.5a.815.815,0,1,1-.786.815.8.8,0,0,1,.786-.815m3.344-7.5a1.142,1.142,0,1,1-1.1,1.141,1.121,1.121,0,0,1,1.1-1.141m1.643,4.726a.786.786,0,1,1-.786-.815.8.8,0,0,1,.786.815m-7.06,6.141c7,0,13.588-5.544,15.579-12.061-2.743-1.569-9.275-4.559-13.678-2.916-5.935,2.215-8.11,4.77-14.011,3.857-1.2-.186-2.6-.3-3.276-.354,2.16,6.213,8.6,11.475,15.386,11.475" transform="translate(-61.3 -194.605)" fill="#637276"/>
    <path id="Path_851" data-name="Path 851" d="M30.662,62.016V58.287a1.322,1.322,0,0,0-1.32-1.32H18.631a1.322,1.322,0,0,0-1.321,1.32v3.728a1.322,1.322,0,0,0,1.321,1.32H29.342a1.322,1.322,0,0,0,1.32-1.32" transform="translate(-13.954 -45.922)" fill="#637276"/>
    <path id="Path_852" data-name="Path 852" d="M53.495,87.328A22.5,22.5,0,0,1,41.1,99.723C20.13,108.211.221,88.3,8.71,67.333a22.5,22.5,0,0,1,12.4-12.4c20.97-8.488,40.878,11.421,32.39,32.39m-12.1-41.776a.668.668,0,1,1,1.335,0v1.084a.668.668,0,1,1-1.335,0Zm0-3.714a.668.668,0,0,1,1.335,0v1.085a.668.668,0,0,1-1.335,0Zm2.095,3.714a.668.668,0,1,1,1.335,0v1.084a.668.668,0,1,1-1.335,0Zm0-3.714a.668.668,0,0,1,1.335,0v1.085a.668.668,0,0,1-1.335,0Zm2.095,3.714a.668.668,0,1,1,1.335,0v1.084a.668.668,0,1,1-1.335,0Zm0-3.714a.668.668,0,0,1,1.335,0v1.085a.668.668,0,0,1-1.335,0Zm2.095,3.714a.668.668,0,1,1,1.335,0v1.084a.668.668,0,1,1-1.335,0Zm0-3.714a.668.668,0,0,1,1.335,0v1.085a.668.668,0,0,1-1.335,0Zm2.095,3.714a.668.668,0,1,1,1.336,0v1.084a.668.668,0,1,1-1.336,0Zm0-3.714a.668.668,0,0,1,1.336,0v1.085a.668.668,0,0,1-1.336,0Zm6.317-.981a3.713,3.713,0,1,1-3.713,3.713,3.718,3.718,0,0,1,3.713-3.713m-53.7,6.905V43.757A2.59,2.59,0,0,1,4.978,41.17H16.486a2.59,2.59,0,0,1,2.587,2.587v4.005a2.59,2.59,0,0,1-2.587,2.587H4.978a2.59,2.59,0,0,1-2.587-2.587M.868,39.114v74.813A3.436,3.436,0,0,0,4.3,117.362H57.9a3.436,3.436,0,0,0,3.436-3.436V39.114H.868Z" transform="translate(-0.7 -31.53)" fill="#637276"/>
    <path id="Path_853" data-name="Path 853" d="M275.962,59.879a2.337,2.337,0,1,0-2.337-2.337,2.339,2.339,0,0,0,2.337,2.337" transform="translate(-220.572 -44.502)" fill="#637276"/>
    <path id="Path_854" data-name="Path 854" d="M57.658,0H3.148A3.105,3.105,0,0,0,0,3.061V5.507H60.805V3.061A3.105,3.105,0,0,0,57.658,0" fill="#637276"/>
  </g>
</svg>
