<svg xmlns="http://www.w3.org/2000/svg" xmlns:xlink="http://www.w3.org/1999/xlink" width="50.899" height="61.396" viewBox="0 0 50.899 61.396">
  <defs>
    <clipPath id="clip-path">
      <rect id="Rectangle_61" data-name="Rectangle 61" width="50.899" height="61.396" fill="none"/>
    </clipPath>
  </defs>
  <g id="icon8" opacity="0.8">
    <g id="Group_1046" data-name="Group 1046" clip-path="url(#clip-path)">
      <path id="Path_330" data-name="Path 330" d="M16.007,125.243H13.594v-2.037h.858a.859.859,0,0,0,.858-.857v-4.505a.859.859,0,0,0-.858-.858h-.858v-2.036h2.414v-.859H13.164a.43.43,0,0,0-.428.431v2.465h-.858a.858.858,0,0,0-.857.858v4.505a.858.858,0,0,0,.857.857h.858v2.465a.43.43,0,0,0,.428.43h2.843Z" transform="translate(-9.505 -98.4)" fill="#fff"/>
      <path id="Path_331" data-name="Path 331" d="M325.062,126.1h2.843a.43.43,0,0,0,.428-.43v-2.465h.858a.858.858,0,0,0,.857-.857v-4.506a.858.858,0,0,0-.857-.858h-.858V114.52a.43.43,0,0,0-.428-.43h-2.843v.859h2.414v2.036h-.858a.859.859,0,0,0-.858.858v4.506a.859.859,0,0,0,.858.857h.858v2.037h-2.414Z" transform="translate(-280.359 -98.4)" fill="#fff"/>
      <path id="Path_332" data-name="Path 332" d="M46.508,42.117H34.817a.889.889,0,0,1-.889-.889V41.21a.889.889,0,0,1,.889-.889H46.508a.889.889,0,0,1,.889.889v.017a.889.889,0,0,1-.889.889m0,3.591H34.817a.888.888,0,0,1-.889-.888V44.8a.889.889,0,0,1,.889-.889H46.508a.889.889,0,0,1,.889.889v.018a.889.889,0,0,1-.889.888m0-10.775H34.817a.888.888,0,0,1-.889-.889v-.018a.889.889,0,0,1,.889-.889H46.508a.889.889,0,0,1,.889.889v.018a.889.889,0,0,1-.889.889m0,3.592H34.817a.889.889,0,0,1-.889-.889v-.018a.889.889,0,0,1,.889-.889H46.508a.889.889,0,0,1,.889.889v.018a.889.889,0,0,1-.889.889m11.076,7.9H54.517a1.7,1.7,0,0,1-1.7-1.7v-.042a1.7,1.7,0,0,1,1.7-1.7h3.067a1.7,1.7,0,0,1,1.7,1.7v.042a1.7,1.7,0,0,1-1.7,1.7m-10.8.5H34.573a1.8,1.8,0,0,1-1.8-1.8V33.749a1.8,1.8,0,0,1,1.8-1.8H46.782a1.8,1.8,0,0,1,1.8,1.8V45.127a1.8,1.8,0,0,1-1.8,1.8m-19.944-.5H23.77a1.7,1.7,0,0,1-1.7-1.7v-.042a1.7,1.7,0,0,1,1.7-1.7h3.067a1.7,1.7,0,0,1,1.7,1.7v.042a1.7,1.7,0,0,1-1.7,1.7m.615-29.7H53.9v8.848H27.453ZM63.7,48.936h0V39.7a3.592,3.592,0,0,0-3.592-3.591h-.939V2.407a.9.9,0,0,0-.4-.749L56.485.151A.9.9,0,0,0,55.092.9V11.725l-.679-1.833a6.286,6.286,0,0,0-5.893-4.1h-15.7a6.286,6.286,0,0,0-5.908,4.141l-.651,1.793V.9A.9.9,0,0,0,24.87.151L22.59,1.658a.9.9,0,0,0-.4.749v33.7h-.939A3.592,3.592,0,0,0,17.656,39.7v9.232Z" transform="translate(-15.228 0)" fill="#fff"/>
      <path id="Path_333" data-name="Path 333" d="M2.428,361.383H.9a.9.9,0,0,0-.9.9v4.964a.9.9,0,0,0,.9.9H50a.9.9,0,0,0,.9-.9v-4.964a.9.9,0,0,0-.9-.9H2.428Z" transform="translate(0 -311.685)" fill="#fff"/>
      <path id="Path_334" data-name="Path 334" d="M34.7,418.465a1.8,1.8,0,0,0,1.8,1.8h4.759a1.8,1.8,0,0,0,1.8-1.8v-2.38H34.7Z" transform="translate(-29.928 -358.865)" fill="#fff"/>
      <path id="Path_335" data-name="Path 335" d="M274.694,416.085v2.38a1.8,1.8,0,0,0,1.8,1.8h4.759a1.8,1.8,0,0,0,1.8-1.8v-2.38Z" transform="translate(-236.918 -358.865)" fill="#fff"/>
    </g>
  </g>
</svg>
