<svg id="icons2" xmlns="http://www.w3.org/2000/svg" xmlns:xlink="http://www.w3.org/1999/xlink" width="81.068" height="85.832" viewBox="0 0 81.068 85.832">
  <defs>
    <clipPath id="clip-path">
      <rect id="Rectangle_862" data-name="Rectangle 862" width="81.068" height="85.832" fill="#637276"/>
    </clipPath>
  </defs>
  <g id="Group_1142" data-name="Group 1142" clip-path="url(#clip-path)">
    <path id="Path_858" data-name="Path 858" d="M10.017,25.181V9.151a2,2,0,0,1,2-2h54.51L77.652,17.17,66.525,27.179H12.015a2,2,0,0,1-2-2m61.509,12.58V53.792a2,2,0,0,1-2,2H14.543L3.416,45.773,14.543,35.763H69.529a2,2,0,0,1,2,2m-3.9-7.718L80.488,18.461a1.737,1.737,0,0,0,.007-2.585L67.629,4.3H40.051V1.432a1.428,1.428,0,1,0-2.856,0V4.3H12.015A4.865,4.865,0,0,0,7.153,9.151V25.181a4.866,4.866,0,0,0,4.862,4.862H37.2V32.9H13.447L.572,44.488A1.743,1.743,0,0,0,0,45.78a1.765,1.765,0,0,0,.572,1.292L13.447,58.653H37.2V84.4a1.428,1.428,0,1,0,2.856,0V58.653H69.529a4.865,4.865,0,0,0,4.862-4.862V37.761A4.866,4.866,0,0,0,69.529,32.9H40.051V30.043Z" fill="#637276"/>
  </g>
</svg>
