<svg xmlns="http://www.w3.org/2000/svg" xmlns:xlink="http://www.w3.org/1999/xlink" width="246" height="64" viewBox="0 0 246 64">
  <defs>
    <clipPath id="clip-path">
      <path id="Path_11" data-name="Path 11" d="M0-27.18H246v-64H0Z" transform="translate(0 91.18)" fill="none"/>
    </clipPath>
  </defs>
  <g id="logo" transform="translate(0 91.18)">
    <g id="Group_11" data-name="Group 11" transform="translate(0 -91.18)" clip-path="url(#clip-path)">
      <g id="Group_1" data-name="Group 1" transform="translate(98.574 25.087)">
        <path id="Path_1" data-name="Path 1" d="M-1.359,0,19.254,1.441,17.366,14.668S-1.215,13.143-4.54,13.61Z" transform="translate(4.54)" fill="#fe7423"/>
      </g>
      <g id="Group_2" data-name="Group 2" transform="translate(233.409)">
        <path id="Path_2" data-name="Path 2" d="M-2.924,0a6.994,6.994,0,0,0-6.82,6.283,5.664,5.664,0,0,0,5.722,6.282A6.991,6.991,0,0,0,2.8,6.283,5.665,5.665,0,0,0-2.924,0M-3.96,11.659A4.856,4.856,0,0,1-8.838,6.268,5.989,5.989,0,0,1-3.022.908a4.857,4.857,0,0,1,4.916,5.36A6,6,0,0,1-3.96,11.659M-.331,4.9C-.226,3.71-.967,2.8-2.889,2.8h-2.1a.887.887,0,0,0-.856.8l-.5,5.672a.506.506,0,0,0,.525.578.64.64,0,0,0,.643-.578l.184-2.118h1.907c1.293,0,1.174,1.19,1.122,1.786l-.029.316a.532.532,0,0,0,.541.595A.658.658,0,0,0-.8,9.26l.041-.474C-.636,7.405-1.227,6.792-1.77,6.6A2.027,2.027,0,0,0-.331,4.9m-2.9,1.226H-4.892l.2-2.313h1.624c1.275,0,1.639.455,1.581,1.122-.069.786-.788,1.19-1.747,1.19" transform="translate(9.769)" fill="#637276"/>
      </g>
      <g id="Group_3" data-name="Group 3" transform="translate(132.034 18.582)">
        <path id="Path_3" data-name="Path 3" d="M0-18.872H20.982L31.076-62.08c-7.114-.568-13.956-.971-20.564-1.231Z" transform="translate(0 63.311)" fill="#637276"/>
      </g>
      <g id="Group_4" data-name="Group 4" transform="translate(47.406 18.736)">
        <path id="Path_4" data-name="Path 4" d="M-11.173-15.748l-6.009-33.762c-6.886.93-13.577,1.995-20.145,3.153l5.408,37.814H8.163L18.5-52.828c-7.353.366-14.415.915-21.257,1.609Z" transform="translate(37.327 52.828)" fill="#637276"/>
      </g>
      <g id="Group_5" data-name="Group 5" transform="translate(0 25.957)">
        <path id="Path_5" data-name="Path 5" d="M0-15.841l21.221-.236L43.235-53.14c-7.648,1.4-15.152,2.923-22.629,4.492Z" transform="translate(0 53.14)" fill="#637276"/>
      </g>
      <g id="Group_6" data-name="Group 6" transform="translate(167.605 20.722)">
        <path id="Path_6" data-name="Path 6" d="M-2.447,0A49.6,49.6,0,0,0-7.674,13.483c-2.713,19.01,6.011,24.683,15.325,27.986s23.815,1.065,23.815,1.065L37.122,26.71s-2.709.826-10.257.826S16.021,23.518,15.55,18.678a26.14,26.14,0,0,1,4.8-16.006Q8.507,1.073-2.447,0" transform="translate(8.176)" fill="#637276"/>
      </g>
      <g id="Group_7" data-name="Group 7" transform="translate(43.235 20.152)">
        <path id="Path_7" data-name="Path 7" d="M-1.473,0-4.921,5.8q2.078-.381,4.171-.749Z" transform="translate(4.921)" fill="#fff"/>
      </g>
      <g id="Group_8" data-name="Group 8" transform="translate(20.605 0.191)">
        <path id="Path_8" data-name="Path 8" d="M-18.394,0H-42.442L-61.447,30.258c7.477-1.569,14.982-3.089,22.629-4.492l3.449-5.8.722,5.055c6.569-1.157,13.26-2.223,20.145-3.153Z" transform="translate(61.447)" fill="#758588"/>
      </g>
      <g id="Group_9" data-name="Group 9" transform="translate(81.98 0.001)">
        <path id="Path_9" data-name="Path 9" d="M-51.452-7.6c9.2-4.725,21.69-.946,21.69-.946l5.542-15.469s-5.071-2.127-21.1-1.3A47.768,47.768,0,0,0-72.315-14.692l2.709-10.628H-167.1l-4.785,20.154c6.843-.694,13.9-1.243,21.257-1.609l.856-3.666,39.255.119-.8,3.392c6.608.26,13.45.664,20.564,1.231l1.108-4.743,12.965.119a36.588,36.588,0,0,0-3.85,5.532q10.962,1.076,22.8,2.673A17.981,17.981,0,0,1-51.452-7.6" transform="translate(171.883 25.511)" fill="#758588"/>
      </g>
      <g id="Group_10" data-name="Group 10" transform="translate(22.46 25.663)">
        <path id="Path_10" data-name="Path 10" d="M0-14.978S10.665-26.334,36.719-32.484c0,0,10.267-2.432,18.158-3.524l3.381-14.239s-14.7,1.69-22.719,3.58-20.424,6.239-20.424,6.239Z" transform="translate(0 50.247)" fill="#fe7423"/>
      </g>
    </g>
  </g>
</svg>
