<svg id="phn" xmlns="http://www.w3.org/2000/svg" xmlns:xlink="http://www.w3.org/1999/xlink" width="25.507" height="23.585" viewBox="0 0 25.507 23.585">
  <defs>
    <clipPath id="clip-path">
      <rect id="Rectangle_6" data-name="Rectangle 6" width="25.507" height="23.585" fill="#fff"/>
    </clipPath>
  </defs>
  <g id="Group_19" data-name="Group 19" transform="translate(0 0)" clip-path="url(#clip-path)">
    <path id="Path_15" data-name="Path 15" d="M24.218,16.728c-.635-.311-3.715-1.822-4.29-2.025s-.995-.311-1.415.312-1.63,2.025-1.989,2.433-.73.468-1.366.156a16.963,16.963,0,0,1-5.045-3.093,18.629,18.629,0,0,1-3.487-4.3c-.359-.625-.036-.959.276-1.271.288-.288.623-.732.947-1.09.084-.108.155-.2.227-.3a6.744,6.744,0,0,0,.4-.744,1.123,1.123,0,0,0-.047-1.09C8.267,5.4,7.009,2.336,6.482,1.09S5.44.059,5.069.059,4.289,0,3.87,0A2.319,2.319,0,0,0,2.192.779,6.975,6.975,0,0,0,0,5.979,7.941,7.941,0,0,0,.323,8.1a14.163,14.163,0,0,0,2.241,4.314c.312.407,4.338,6.9,10.713,9.406,6.387,2.481,6.387,1.654,7.538,1.546s3.715-1.5,4.229-2.959a5.145,5.145,0,0,0,.372-2.961c-.155-.252-.575-.407-1.2-.719" transform="translate(0 0)" fill="#fff" fill-rule="evenodd"/>
  </g>
</svg>
